<?xml version="1.0" standalone="no"?>
<!DOCTYPE svg PUBLIC "-//W3C//DTD SVG 20010904//EN"
 "http://www.w3.org/TR/2001/REC-SVG-20010904/DTD/svg10.dtd">
<svg version="1.0" xmlns="http://www.w3.org/2000/svg"
 width="640.000000pt" height="640.000000pt" viewBox="0 0 640.000000 640.000000"
 preserveAspectRatio="xMidYMid meet">
<metadata>
Created by potrace 1.14, written by Peter Selinger 2001-2017
</metadata>
<g transform="translate(0.000000,640.000000) scale(0.100000,-0.100000)"
fill="#000000" stroke="none">
<path d="M1055 5211 c-80 -20 -100 -27 -137 -53 -14 -10 -32 -18 -39 -18 -7 0
-22 -9 -34 -20 -13 -12 -37 -21 -58 -22 -41 -1 -43 -4 -22 -32 13 -17 15 -17
37 -2 12 9 29 16 36 16 7 0 20 7 28 15 9 8 34 15 57 15 42 0 67 10 70 26 1 5
21 7 45 6 42 -4 43 -3 30 17 -7 12 -17 21 -23 21 -5 0 -2 5 9 11 10 6 47 11
82 10 61 -1 83 10 48 23 -23 9 -51 6 -129 -13z"/>
<path d="M1379 5213 c-12 -3 -17 -14 -16 -39 1 -32 3 -34 33 -34 41 0 53 17
22 29 -17 7 -19 10 -5 10 9 1 20 1 24 1 4 0 8 -7 9 -17 4 -24 50 -63 75 -63
33 0 16 24 -21 30 -37 6 -54 30 -21 30 36 0 32 19 -8 40 -39 19 -59 22 -92 13z"/>
<path d="M1530 5152 c0 -5 10 -16 22 -24 19 -13 21 -18 10 -31 -14 -16 0 -33
18 -22 13 8 80 -43 80 -60 0 -8 13 -16 29 -20 16 -3 35 -13 42 -21 10 -12 9
-14 -7 -9 -10 3 -4 -2 14 -10 18 -9 30 -20 27 -25 -3 -6 -2 -10 3 -10 5 0 13
-25 17 -55 6 -49 9 -55 26 -50 22 7 39 -7 56 -47 7 -16 18 -28 24 -28 6 0 9
-7 5 -15 -3 -9 4 -24 19 -37 14 -12 25 -30 25 -40 0 -10 7 -29 15 -42 9 -13
18 -36 21 -52 5 -27 5 -27 -18 -10 -13 9 -33 23 -46 32 -12 9 -26 14 -29 10
-4 -4 2 -9 13 -12 11 -3 29 -19 38 -36 22 -36 68 -57 131 -60 39 -1 45 -4 39
-20 -6 -19 15 -25 32 -8 5 5 29 20 54 33 37 19 76 63 79 88 1 4 -11 10 -26 14
-43 10 -99 56 -133 108 -17 27 -40 51 -49 55 -26 10 -73 53 -99 90 -13 18 -40
41 -60 52 -21 10 -59 42 -87 70 -91 95 -97 99 -118 97 -13 -1 -22 4 -22 13 0
8 -15 22 -33 32 -19 9 -39 23 -45 32 -14 18 -67 33 -67 18z"/>
<path d="M710 5072 c0 -4 9 -15 20 -25 36 -31 57 -15 22 16 -19 18 -42 23 -42
9z"/>
<path d="M868 4943 c7 -3 16 -2 19 1 4 3 -2 6 -13 5 -11 0 -14 -3 -6 -6z"/>
<path d="M3390 4534 c-30 -8 -93 -13 -140 -12 -124 2 -276 -30 -378 -78 -32
-15 -67 -28 -79 -30 -29 -3 -72 -35 -73 -55 0 -13 8 -14 48 -9 26 4 67 15 91
24 24 9 58 16 76 16 19 0 35 4 37 9 7 22 337 41 435 26 32 -5 46 -3 58 9 13
12 21 13 36 6 11 -6 34 -13 52 -15 17 -3 52 -8 77 -11 25 -4 49 -13 53 -20 5
-8 24 -14 45 -14 21 0 55 -9 77 -20 22 -11 56 -20 76 -20 29 0 39 -5 44 -20 6
-20 18 -22 96 -24 14 -1 33 -7 42 -15 10 -7 17 -10 17 -6 0 4 10 1 23 -7 12
-8 35 -18 50 -22 15 -3 25 -11 22 -16 -3 -6 -1 -10 5 -10 6 0 23 -12 38 -28
15 -15 47 -41 72 -57 31 -21 53 -46 70 -82 25 -52 58 -85 40 -40 -22 57 -46
90 -108 154 -63 63 -161 143 -177 143 -4 0 -21 10 -38 23 -89 63 -150 88 -257
104 -57 8 -99 19 -106 28 -6 8 -20 15 -31 15 -11 0 -47 12 -79 26 -47 21 -69
25 -106 21 -33 -4 -48 -2 -50 7 -2 10 -13 10 -58 0z"/>
<path d="M4799 4475 c-3 -2 -65 -7 -138 -10 -139 -5 -181 -11 -181 -26 0 -13
94 -98 110 -99 33 -1 100 -84 100 -122 0 -28 65 -125 89 -133 10 -3 32 -28 50
-55 18 -28 38 -51 44 -51 7 -1 28 -3 47 -4 23 -1 59 -18 103 -49 38 -25 77
-46 87 -46 17 0 17 2 4 29 -17 35 -27 236 -13 263 7 13 3 31 -15 67 -28 55
-46 66 -73 46 -22 -17 -88 -19 -132 -4 -51 18 -72 80 -34 102 25 15 -2 97 -32
97 -6 0 -14 -2 -16 -5z"/>
<path d="M5837 4319 c7 -7 15 -10 18 -7 3 3 -2 9 -12 12 -14 6 -15 5 -6 -5z"/>
<path d="M5870 4286 c0 -9 5 -16 10 -16 6 0 10 4 10 9 0 6 -4 13 -10 16 -5 3
-10 -1 -10 -9z"/>
<path d="M2470 4251 c-39 -21 -76 -58 -67 -67 9 -9 45 14 51 33 3 10 23 25 43
35 21 9 31 16 23 17 -8 0 -31 -8 -50 -18z"/>
<path d="M5900 4196 c0 -9 7 -16 15 -16 8 0 15 -4 15 -10 0 -5 4 -10 10 -10 6
0 6 9 1 23 -10 26 -41 36 -41 13z"/>
<path d="M6051 4104 c-15 -18 -6 -32 25 -38 10 -3 27 -7 37 -11 15 -6 15 -2
-5 28 -25 40 -36 44 -57 21z"/>
<path d="M4471 3908 c-1 -19 28 -52 38 -43 3 4 -1 12 -10 18 -9 7 -18 19 -22
27 -4 12 -6 12 -6 -2z"/>
<path d="M4501 3810 c19 -37 39 -60 39 -45 0 8 -49 85 -55 85 -3 0 5 -18 16
-40z"/>
<path d="M2679 3703 c-8 -10 -23 -41 -32 -69 -20 -56 -14 -84 27 -139 39 -52
77 -125 66 -125 -6 0 -54 5 -108 11 -71 8 -127 8 -212 -1 -136 -14 -343 -53
-420 -80 -30 -11 -80 -24 -111 -30 -52 -10 -57 -14 -63 -42 -14 -69 -7 -104
34 -167 31 -47 40 -72 40 -104 0 -93 31 -306 56 -381 76 -231 211 -361 424
-407 107 -23 269 -16 370 16 47 14 101 30 120 34 19 4 34 12 33 19 -3 14 34
35 47 27 5 -3 11 -1 15 5 11 19 77 44 90 34 6 -5 31 -23 54 -41 26 -19 65 -37
99 -44 31 -6 67 -18 79 -25 34 -21 75 -17 145 15 72 32 158 117 158 156 0 13
5 27 12 31 6 4 8 3 5 -3 -4 -6 0 -16 8 -23 13 -11 14 -10 9 3 -10 28 126 -106
148 -145 13 -23 29 -38 40 -38 10 0 21 -7 25 -16 3 -9 13 -14 24 -11 11 3 22
1 25 -5 3 -5 15 -7 26 -5 14 4 18 1 14 -8 -3 -9 0 -12 9 -9 8 3 38 1 67 -5
132 -27 328 -15 439 28 144 55 250 169 311 336 42 113 57 189 83 411 5 38 17
64 51 110 44 58 44 60 38 119 -4 33 -9 63 -13 67 -3 4 -60 23 -126 42 -232 67
-432 105 -578 107 -53 1 -99 5 -102 9 -2 4 19 41 47 84 55 83 64 124 39 184
-12 28 -18 32 -51 32 -31 0 -42 -6 -63 -34 -20 -26 -23 -36 -14 -46 9 -9 7
-15 -10 -27 -13 -9 -23 -20 -23 -25 0 -6 -11 -19 -25 -30 -14 -11 -25 -25 -25
-32 0 -18 -46 -110 -62 -123 -7 -6 -53 -24 -101 -41 -49 -18 -99 -37 -112 -44
-44 -25 -131 -87 -154 -112 -17 -18 -28 -23 -40 -17 -30 16 -223 23 -280 10
l-55 -11 -51 56 c-28 31 -56 56 -61 56 -5 0 -17 13 -27 29 -9 16 -50 69 -90
118 -40 48 -82 104 -93 123 -10 19 -31 51 -46 71 -16 20 -28 45 -28 55 -1 23
-40 70 -67 78 -13 4 -25 0 -34 -11z m722 -882 c34 -34 41 -37 50 -22 8 13 9
12 4 -6 -5 -18 -2 -21 19 -19 27 3 35 -10 55 -88 7 -28 7 -44 0 -52 -11 -13
-2 -61 8 -50 4 3 12 1 20 -5 16 -14 17 -55 1 -65 -7 -4 -8 -3 -4 4 4 7 3 12
-3 12 -5 0 -23 11 -40 26 -18 15 -73 38 -136 56 -90 27 -112 30 -144 22 -54
-15 -59 -10 -50 46 11 68 23 87 75 112 27 12 49 31 55 44 13 35 46 30 90 -15z
m784 -681 c3 -5 -3 -10 -14 -10 -11 0 -23 5 -26 10 -3 6 3 10 14 10 11 0 23
-4 26 -10z"/>
<path d="M4512 2124 c-18 -20 -14 -27 10 -21 12 4 27 2 34 -4 8 -6 14 -6 18 0
4 5 -6 16 -22 23 -23 12 -30 12 -40 2z"/>
<path d="M4500 2076 c0 -2 7 -7 16 -10 8 -3 12 -2 9 4 -6 10 -25 14 -25 6z"/>
<path d="M4565 2070 c-3 -5 1 -10 9 -10 9 0 16 5 16 10 0 6 -4 10 -9 10 -6 0
-13 -4 -16 -10z"/>
<path d="M4625 2041 c17 -10 39 -28 49 -40 23 -25 35 -27 32 -5 -4 23 -57 63
-86 64 -25 0 -25 0 5 -19z"/>
<path d="M4690 1100 c5 -17 9 -33 9 -35 -1 -21 14 -65 22 -65 6 0 6 8 -1 19
-5 11 -10 22 -10 25 0 8 34 -6 41 -17 4 -6 26 -7 53 -3 44 7 57 18 37 31 -5 3
-12 19 -16 35 -7 32 -25 41 -25 14 0 -14 -7 -15 -41 -10 -23 4 -48 13 -56 21
-21 21 -23 19 -13 -15z"/>
<path d="M931 1054 c0 -11 3 -14 6 -6 3 7 2 16 -1 19 -3 4 -6 -2 -5 -13z"/>
<path d="M635 1028 c-17 -4 -52 -8 -80 -9 -44 -2 -55 -7 -88 -40 -32 -32 -46
-39 -78 -39 -22 0 -39 -5 -39 -11 0 -8 -12 -10 -35 -6 -19 3 -37 1 -41 -5 -3
-5 -14 -8 -24 -5 -10 3 -27 -3 -38 -13 -14 -14 -30 -16 -70 -12 -28 2 -59 1
-69 -3 -10 -5 -22 -7 -27 -6 -4 1 -17 -1 -27 -4 -16 -5 -19 -16 -19 -61 0 -30
2 -54 4 -54 15 0 66 24 66 31 0 5 12 9 26 9 28 0 84 29 84 43 0 5 8 6 18 3 10
-4 39 1 63 10 24 9 67 20 94 25 28 4 111 19 185 33 74 15 147 26 163 26 30 0
49 27 27 40 -7 4 -10 15 -7 23 10 25 -38 39 -88 25z"/>
<path d="M2126 1005 c-44 -57 -78 -85 -121 -97 -88 -26 -111 -97 -37 -117 20
-6 43 -11 50 -11 6 0 12 -4 12 -8 0 -12 51 -39 87 -46 l32 -7 0 55 c0 53 -2
57 -40 83 -21 16 -39 34 -39 41 0 17 7 15 46 -8 18 -12 34 -17 37 -13 10 18
18 163 9 163 -5 0 -22 -16 -36 -35z"/>
<path d="M4760 990 c-12 -8 -10 -10 8 -10 13 0 20 4 17 10 -7 12 -6 12 -25 0z"/>
<path d="M884 927 c-3 -9 -14 -17 -23 -17 -10 0 -26 -7 -37 -15 -10 -8 -26
-14 -34 -15 -13 0 -13 1 0 10 12 8 13 10 1 10 -8 0 -22 6 -30 14 -14 13 -19
12 -41 -4 l-25 -20 23 0 c34 0 19 -15 -17 -18 -22 -2 -31 2 -31 13 0 8 -3 15
-7 16 -5 0 -18 2 -30 5 -17 3 -20 0 -16 -16 3 -11 12 -20 20 -20 18 0 13 -32
-5 -36 -7 -1 -8 0 -2 3 5 2 10 9 10 14 0 11 -54 0 -58 -13 -5 -12 -32 -10 -32
3 0 7 -8 9 -22 4 -13 -3 -32 -8 -43 -9 -11 -2 -21 -10 -23 -19 -2 -9 -8 -17
-13 -17 -6 0 -7 -4 -4 -10 10 -17 105 -12 111 5 4 8 10 15 16 15 11 0 -1 -43
-13 -48 -5 -2 -9 -12 -9 -23 0 -10 -4 -19 -8 -19 -15 0 -30 22 -25 36 4 11 -6
14 -42 14 -29 0 -52 6 -62 16 -25 25 -57 14 -61 -21 -5 -40 -20 -47 -53 -24
-27 19 -28 19 -34 -1 -8 -24 -15 -25 -41 -5 -26 19 -55 20 -48 0 4 -8 15 -15
26 -15 11 0 18 -5 15 -12 -2 -8 -17 -12 -36 -10 -38 3 -71 -13 -71 -33 0 -8
-7 -15 -15 -15 -9 0 -15 9 -15 21 0 16 -4 19 -17 13 -10 -4 -28 -7 -40 -7 -22
1 -23 -3 -23 -66 0 -40 5 -72 12 -79 10 -10 10 -15 1 -20 -14 -9 -16 -252 -2
-252 5 0 9 7 9 15 0 9 6 12 15 9 8 -4 15 -2 15 4 0 6 -6 13 -12 15 -8 4 -9 6
-2 6 6 1 17 -5 23 -13 10 -12 6 -18 -23 -31 -31 -15 -35 -21 -34 -56 0 -38 1
-39 38 -39 22 0 46 7 55 16 9 9 19 13 23 10 12 -13 -42 -45 -68 -40 -14 2 -19
1 -12 -2 20 -10 14 -24 -12 -24 -22 0 -23 -4 -25 -65 l-2 -65 61 0 c33 0 60 4
60 10 0 6 5 10 11 10 5 0 7 -4 4 -10 -4 -7 122 -10 368 -9 l373 1 23 161 c39
282 42 336 22 379 -12 24 -17 53 -15 79 2 23 -1 49 -6 58 -5 11 -6 64 -1 132
7 105 1 156 -15 116z m-369 -117 c3 -5 -3 -10 -15 -10 -12 0 -18 5 -15 10 3 6
10 10 15 10 5 0 12 -4 15 -10z m-50 -86 c-22 -20 -25 -28 -14 -34 7 -5 10 -13
5 -17 -4 -4 -16 2 -26 15 -18 22 -18 24 -2 42 9 10 28 19 41 19 l24 1 -28 -26z
m-145 -24 c0 -3 -9 -11 -21 -18 -16 -10 -24 -10 -35 -1 -22 18 -17 26 21 25
19 -1 35 -3 35 -6z m-90 -35 c7 -8 19 -15 26 -15 8 0 14 -10 14 -22 0 -21 -1
-21 -13 -3 -17 22 -40 11 -32 -16 5 -13 2 -19 -10 -19 -12 0 -15 6 -10 20 5
15 2 20 -10 20 -11 0 -15 -5 -12 -14 3 -8 -1 -20 -9 -26 -11 -10 -14 -10 -16
1 -3 30 -4 35 -16 56 -11 20 -10 22 20 26 18 2 38 5 44 5 6 1 17 -5 24 -13z
m167 -20 c2 -6 -7 -15 -18 -20 -12 -6 -22 -14 -22 -20 0 -14 -36 -38 -60 -39
-14 -1 -23 -10 -28 -26 -5 -21 -7 -22 -13 -8 -13 30 -3 53 24 53 14 0 25 6 26
13 1 6 3 15 4 20 1 4 3 12 5 17 1 6 3 12 3 15 3 10 75 5 79 -5z m-357 -5 c0
-5 -2 -10 -4 -10 -3 0 -8 5 -11 10 -3 6 -1 10 4 10 6 0 11 -4 11 -10z m415 0
c-3 -5 -14 -10 -23 -10 -15 0 -15 2 -2 10 20 13 33 13 25 0z m-339 -27 c-7 -7
-26 7 -26 19 0 6 6 6 15 -2 9 -7 13 -15 11 -17z m374 -13 c0 -5 -4 -10 -10
-10 -5 0 -10 5 -10 10 0 6 5 10 10 10 6 0 10 -4 10 -10z m1 -35 c0 -5 -9 -11
-21 -13 -20 -3 -27 8 -13 22 10 9 34 3 34 -9z m39 1 c0 -3 -4 -8 -10 -11 -5
-3 -10 -1 -10 4 0 6 5 11 10 11 6 0 10 -2 10 -4z m-200 -26 c-14 -11 -20 -20
-15 -20 6 0 4 -4 -4 -9 -20 -13 -23 -41 -5 -48 8 -3 12 -9 9 -13 -7 -12 -78
-6 -82 7 -2 6 6 8 22 6 22 -5 25 -2 25 23 0 30 35 73 60 73 10 0 6 -6 -10 -19z
m145 -20 c4 -6 -9 -10 -32 -9 -30 0 -34 2 -18 9 27 12 43 12 50 0z m-103 -36
c9 -9 -3 -44 -16 -44 -18 0 -38 37 -23 43 17 8 33 8 39 1z m78 -3 c0 -5 -7
-11 -15 -15 -15 -5 -20 5 -8 17 9 10 23 9 23 -2z m60 -1 c0 -5 -2 -10 -4 -10
-3 0 -8 5 -11 10 -3 6 -1 10 4 10 6 0 11 -4 11 -10z m100 -20 c0 -5 -4 -10
-10 -10 -5 0 -10 5 -10 10 0 6 5 10 10 10 6 0 10 -4 10 -10z m-130 -20 c0 -5
-15 -10 -32 -9 -28 0 -30 2 -13 9 28 12 45 12 45 0z m130 -21 c0 -12 -39 -31
-49 -24 -5 3 -7 13 -4 23 3 14 11 18 29 14 13 -2 24 -8 24 -13z m-333 -4 c-8
-20 14 -31 27 -14 6 8 28 14 50 14 38 0 53 -14 55 -52 1 -15 -26 -18 -31 -4
-1 5 -18 12 -35 16 -29 6 -33 4 -33 -14 0 -12 -4 -21 -10 -21 -5 0 -10 9 -10
20 0 14 -7 20 -21 20 -16 0 -19 -4 -14 -21 5 -15 4 -19 -5 -14 -20 12 4 84 29
85 2 0 1 -7 -2 -15z m252 -12 c-4 -25 3 -34 21 -28 13 4 20 2 20 -7 0 -9 -10
-13 -27 -12 -55 2 -56 3 -43 19 6 8 9 19 5 25 -3 5 1 10 9 10 9 0 15 -3 15 -7z
m131 -27 c0 -8 -4 -17 -9 -20 -10 -7 -23 19 -14 28 11 11 23 6 23 -8z m-544
-18 c1 -10 -4 -18 -12 -18 -8 0 -14 2 -14 4 0 2 -3 12 -6 21 -5 13 -2 16 11
14 10 -2 19 -12 21 -21z m59 11 c4 -6 13 -8 21 -5 17 7 18 -16 2 -33 -11 -10
-9 -15 6 -27 16 -11 17 -14 4 -14 -9 0 -18 6 -21 13 -4 10 -7 10 -18 0 -7 -7
-27 -13 -43 -13 l-31 1 22 18 c12 10 19 21 16 25 -4 3 3 6 15 6 11 0 24 5 27
10 3 6 -1 10 -9 10 -8 0 -18 5 -21 10 -3 6 1 10 9 10 8 0 18 -5 21 -11z m331
-46 c-10 -10 -19 5 -10 18 6 11 8 11 12 0 2 -7 1 -15 -2 -18z m-98 -16 c2 -9
-1 -17 -7 -17 -6 0 -11 6 -11 14 0 8 -6 17 -12 20 -7 3 -4 5 7 3 11 -1 21 -10
23 -20z m62 -13 c0 -10 7 -14 22 -12 11 2 23 -3 25 -9 3 -8 -4 -13 -16 -13
-12 0 -21 -6 -21 -15 0 -16 -36 -20 -58 -6 -19 12 -17 24 7 33 12 4 21 14 21
23 0 8 5 15 10 15 6 0 10 -7 10 -16z m270 6 c0 -5 -4 -10 -9 -10 -6 0 -13 5
-16 10 -3 6 1 10 9 10 9 0 16 -4 16 -10z m-420 -15 c12 -15 3 -21 -24 -16 -5
1 -17 -6 -27 -15 -26 -23 -25 0 1 26 24 24 33 25 50 5z m-240 -25 c0 -5 -5
-10 -11 -10 -5 0 -7 5 -4 10 3 6 8 10 11 10 2 0 4 -4 4 -10z m90 0 c0 -5 -2
-10 -4 -10 -3 0 -8 5 -11 10 -3 6 -1 10 4 10 6 0 11 -4 11 -10z m60 -40 c12
-8 10 -9 -10 -9 -14 1 -38 5 -55 9 -29 7 -29 8 10 9 22 0 47 -4 55 -9z m87 4
c-3 -3 -12 -4 -19 -1 -8 3 -5 6 6 6 11 1 17 -2 13 -5z m-250 -21 c-9 -9 -19
-14 -23 -11 -10 10 6 28 24 28 15 0 15 -1 -1 -17z m443 7 c0 -5 -7 -10 -15
-10 -8 0 -15 5 -15 10 0 6 7 10 15 10 8 0 15 -4 15 -10z m160 0 c0 -5 -4 -10
-10 -10 -5 0 -10 5 -10 10 0 6 5 10 10 10 6 0 10 -4 10 -10z m-230 -20 c0 -5
-4 -10 -10 -10 -5 0 -10 5 -10 10 0 6 5 10 10 10 6 0 10 -4 10 -10z m145 0 c3
-5 -3 -10 -14 -10 -12 0 -21 5 -21 10 0 6 6 10 14 10 8 0 18 -4 21 -10z m-195
-10 c0 -5 -4 -10 -10 -10 -5 0 -10 5 -10 10 0 6 5 10 10 10 6 0 10 -4 10 -10z
m247 4 c-3 -3 -12 -4 -19 -1 -8 3 -5 6 6 6 11 1 17 -2 13 -5z m58 -25 c-5 -27
-11 -33 -20 -20 -3 6 -1 11 6 11 7 0 4 7 -7 15 -19 14 -19 14 3 15 17 0 21 -5
18 -21z m-335 -19 c0 -5 -4 -10 -10 -10 -5 0 -10 5 -10 10 0 6 5 10 10 10 6 0
10 -4 10 -10z m220 -4 c0 -3 -4 -8 -10 -11 -5 -3 -10 -1 -10 4 0 6 5 11 10 11
6 0 10 -2 10 -4z m-422 -12 c13 -4 22 -14 22 -25 0 -13 7 -19 23 -19 15 0 18
-3 9 -9 -17 -11 -117 -5 -140 8 -14 9 -13 10 8 8 21 -2 25 2 23 21 -3 23 11
27 55 16z m245 -19 c-7 -21 -13 -19 -13 6 0 11 4 18 10 14 5 -3 7 -12 3 -20z
m217 0 c0 -2 -10 -10 -22 -16 -21 -11 -22 -11 -9 4 13 16 31 23 31 12z m60 -5
c13 -8 13 -10 -2 -10 -9 0 -20 5 -23 10 -8 13 5 13 25 0z m-330 -10 c0 -5 -4
-10 -10 -10 -5 0 -10 5 -10 10 0 6 5 10 10 10 6 0 10 -4 10 -10z m25 -40 c3
-5 -1 -10 -10 -10 -9 0 -13 5 -10 10 3 6 8 10 10 10 2 0 7 -4 10 -10z m185 0
c0 -5 -5 -10 -11 -10 -5 0 -7 5 -4 10 3 6 8 10 11 10 2 0 4 -4 4 -10z m75 -9
c2 -4 -9 -5 -25 -3 -17 2 -28 8 -25 12 6 9 43 2 50 -9z m-195 -1 c0 -5 -5 -10
-11 -10 -5 0 -7 5 -4 10 3 6 8 10 11 10 2 0 4 -4 4 -10z m57 -16 c-3 -3 -12
-4 -19 -1 -8 3 -5 6 6 6 11 1 17 -2 13 -5z m273 -4 c0 -5 -4 -10 -10 -10 -5 0
-10 5 -10 10 0 6 5 10 10 10 6 0 10 -4 10 -10z"/>
<path d="M430 250 c0 -5 6 -10 14 -10 8 0 18 5 21 10 3 6 -3 10 -14 10 -12 0
-21 -4 -21 -10z"/>
<path d="M140 100 c0 -5 5 -10 10 -10 6 0 10 5 10 10 0 6 -4 10 -10 10 -5 0
-10 -4 -10 -10z"/>
<path d="M5908 753 c6 -2 18 -2 25 0 6 3 1 5 -13 5 -14 0 -19 -2 -12 -5z"/>
<path d="M5870 710 c0 -16 8 -18 53 -18 67 1 321 -11 410 -18 55 -5 67 -3 67
9 0 11 -19 16 -77 22 -140 12 -226 18 -340 21 -105 3 -113 2 -113 -16z"/>
<path d="M5720 341 c-6 -12 -7 -21 -1 -21 10 0 24 30 17 37 -2 3 -9 -5 -16
-16z"/>
<path d="M1002 233 c-6 -2 -10 -9 -6 -14 3 -5 -2 -23 -10 -41 -9 -17 -16 -41
-17 -52 0 -12 -3 -15 -6 -8 -8 20 -23 3 -22 -26 0 -24 1 -25 9 -7 10 23 13 10
10 -48 l-2 -37 46 0 c44 0 46 1 46 28 0 15 4 32 9 38 6 5 4 32 -5 69 -9 33
-18 70 -21 83 -5 23 -9 24 -31 15z"/>
<path d="M5221 69 c-7 -22 -15 -47 -18 -55 -4 -11 6 -14 41 -14 l46 0 -7 32
c-4 18 -16 43 -28 56 l-22 23 -12 -42z"/>
</g>
</svg>
